<svg xmlns="http://www.w3.org/2000/svg" viewBox="0 0 1190.55 841.89"><path fill="#585857" d="M547.075 101.471h-15.999V67.923h-24.1v33.548h-15.81v21.396h15.81v82.132h24.1v-82.132h15.999v-21.396zm50.736-3.085c-14.073 0-27.574 5.789-37.982 16.199-10.214 10.216-15.617 23.709-15.617 38.17 0 14.648 5.403 27.763 15.234 38.367 10.604 11.182 23.324 16.58 38.753 16.58 15.422 0 28.725-5.398 39.135-16.195 10.407-10.602 15.42-23.715 15.42-39.329 0-14.268-6.168-28.534-16.965-38.945-10.407-9.832-22.944-14.847-37.978-14.847zm.578 85.408c-17.738 0-29.305-11.757-29.305-31.232 0-17.932 11.949-30.458 29.305-30.458 16.579 0 29.303 12.144 29.303 29.879-.001 19.86-11.758 31.811-29.303 31.811zM317.196 68.678l-57.548 138.269h28.216l15.24-36.863 49.533.021 14.264 36.842h28.215L337.189 68.678h-19.993zm-5.55 77.539l15.267-41.479h.372l15.934 41.479h-31.573zm148.455.175c0 25.064-5.011 37.982-22.555 37.982-17.735 0-21.398-11.955-21.398-36.438v-46.464h-24.294v59.959c0 30.075 14.653 46.271 40.297 46.271 11.759 0 20.624-4.434 27.759-13.884V205h23.908V101.471h-23.717v44.921zm589.997-48.006c-14.265 0-27.954 6.17-38.552 17.354-9.641 10.219-14.656 23.133-14.656 37.593 0 13.879 5.591 27.956 15.425 38.173 10.41 10.797 23.519 16.195 38.752 16.195 22.944 0 41.258-12.915 50.125-35.665h-26.028c-5.013 8.286-14.073 12.916-24.68 12.916-16.384 0-27.181-9.252-28.724-24.1h82.903c0-1.732.191-3.476.191-5.206 0-13.69-2.891-24.677-9.834-33.933-10.793-14.845-26.989-23.327-44.922-23.327zm-27.568 43.379c3.661-12.917 14.844-21.207 27.567-21.207 14.655 0 24.684 7.324 28.73 21.207h-56.297zm110.014-28.34v-11.954h-22.556v103.528h24.099v-52.822c0-19.279 4.434-28.153 25.065-29.692V99.927c-11.184 0-19.474 4.434-26.608 13.498zm-165.052-3.661c-9.25-7.713-19.281-10.797-32.193-10.797-13.495 0-26.031 4.625-35.668 13.686a54.624 54.624 0 0 0-17.735 40.3c0 16.577 6.938 31.804 19.466 42.598 9.062 7.909 20.828 12.15 33.938 12.15 12.147 0 22.554-3.473 32.193-11.183v8.481h23.718V67.923h-23.718v41.841zm-29.304 74.03c-18.319 0-31.231-13.304-31.231-30.461 0-16.576 13.3-30.653 30.073-30.653 16.774 0 29.497 13.303 29.497 31.037 0 17.16-12.915 30.077-28.339 30.077zm-88.425-69.787c-6.746-10.223-17.541-15.239-32.582-15.239-15.615 0-27.952 5.016-38.366 16.002-9.636 10.03-14.842 23.523-14.842 37.984 0 30.847 22.94 54.557 53.784 54.557 16.005 0 26.416-4.622 32.201-15.035v12.723h23.324V101.471h-23.52v12.536zm-31.231 69.018c-16.193 0-29.885-12.729-29.885-30.66 0-16.767 13.496-29.686 29.497-29.686 15.235 0 29.112 13.497 29.112 30.849.001 16.002-13.685 29.497-28.724 29.497zM724.494 67.923h-94.613v24.102h33.903V205h26.804V92.024h33.906V67.923zm39.479 32.004c-11.187 0-19.477 4.434-26.609 13.498v-11.954h-22.555v103.528h24.099v-52.822c0-19.279 4.434-28.153 25.065-29.692V99.927z"/><path fill="#6C6A6C" d="M546.906 101.495h-16.003V67.939h-24.105v33.555h-15.812v21.401h15.812v82.149h24.105v-82.149h16.003v-21.4zm50.744-3.086c-14.074 0-27.579 5.79-37.987 16.202-10.217 10.219-15.621 23.713-15.621 38.177 0 14.651 5.404 27.771 15.237 38.375 10.604 11.186 23.329 16.585 38.76 16.585 15.426 0 28.731-5.4 39.143-16.199 10.409-10.604 15.424-23.72 15.424-39.336 0-14.272-6.169-28.542-16.969-38.956-10.408-9.832-22.947-14.848-37.987-14.848zm.58 85.426c-17.743 0-29.312-11.759-29.312-31.239 0-17.936 11.952-30.464 29.312-30.464 16.583 0 29.311 12.146 29.311 29.886 0 19.864-11.761 31.817-29.311 31.817zM316.978 68.694l-57.561 138.301h28.223l15.243-36.872 49.543.02 14.267 36.853h28.221L336.976 68.694h-19.998zm-5.551 77.557l15.27-41.488h.373l15.937 41.488h-31.58zm148.486.174c0 25.07-5.013 37.991-22.56 37.991-17.74 0-21.403-11.96-21.403-36.446v-46.476h-24.299v59.973c0 30.083 14.656 46.282 40.305 46.282 11.762 0 20.629-4.435 27.765-13.888v11.184h23.913v-103.55h-23.722v44.93zm590.124-48.016c-14.268 0-27.96 6.172-38.561 17.357-9.642 10.221-14.659 23.138-14.659 37.6 0 13.884 5.594 27.963 15.428 38.184 10.412 10.799 23.524 16.199 38.762 16.199 22.949 0 41.268-12.919 50.138-35.672h-26.036c-5.016 8.287-14.076 12.917-24.686 12.917-16.389 0-27.188-9.254-28.731-24.106h82.922c0-1.731.191-3.474.191-5.205 0-13.695-2.891-24.684-9.834-33.942-10.796-14.848-26.994-23.332-44.934-23.332zm-27.574 43.388c3.664-12.919 14.849-21.21 27.574-21.21 14.658 0 24.69 7.326 28.738 21.21h-56.312zm110.039-28.346v-11.957h-22.56v103.551h24.103v-52.832c0-19.285 4.436-28.162 25.073-29.7V99.95c-11.19 0-19.481 4.436-26.616 13.501zm-165.087-3.662c-9.253-7.714-19.286-10.799-32.202-10.799-13.498 0-26.037 4.626-35.676 13.688a54.635 54.635 0 0 0-17.738 40.309c0 16.581 6.939 31.811 19.469 42.606 9.064 7.912 20.833 12.155 33.945 12.155 12.15 0 22.56-3.474 32.202-11.187v8.483h23.722V67.939h-23.722v41.85zm-29.311 74.046c-18.325 0-31.238-13.306-31.238-30.469 0-16.578 13.302-30.658 30.079-30.658 16.779 0 29.505 13.306 29.505 31.043 0 17.166-12.919 30.084-28.346 30.084zm-88.444-69.801c-6.749-10.226-17.546-15.243-32.59-15.243-15.619 0-27.959 5.017-38.375 16.006-9.638 10.033-14.844 23.527-14.844 37.991 0 30.854 22.945 54.57 53.795 54.57 16.009 0 26.421-4.622 32.208-15.038v12.725h23.329v-103.55H849.66v12.539zm-31.238 69.034c-16.197 0-29.892-12.733-29.892-30.667 0-16.771 13.5-29.693 29.505-29.693 15.237 0 29.117 13.499 29.117 30.854 0 16.006-13.688 29.506-28.73 29.506zM724.363 67.939h-94.634v24.106h33.91v113h26.81v-113h33.914V67.939zm39.489 32.011c-11.189 0-19.481 4.436-26.615 13.501v-11.957h-22.559v103.551h24.103v-52.832c0-19.285 4.433-28.162 25.071-29.7V99.95z"/><linearGradient id="a" gradientUnits="userSpaceOnUse" x1="-3543.389" y1="2839.157" x2="-3738.971" y2="2891.929" gradientTransform="rotate(180 -1745.276 1520.168)"><stop offset="0" stop-color="#2973a4"/><stop offset=".37" stop-color="#2e7ec1"/><stop offset="1" stop-color="#25a3dd"/></linearGradient><path fill="url(#a)" d="M207.36 206.892l.049-.031c.401.018.804.031 1.209.031 12.21 0 22.626-7.661 26.718-18.438l17.589-42.22H75.708l-25.361 60.658H207.36z"/><linearGradient id="b" gradientUnits="userSpaceOnUse" x1="282.422" y1="74.433" x2="86.841" y2="127.204"><stop offset="0" stop-color="#e40428"/><stop offset=".319" stop-color="#e10627"/><stop offset=".572" stop-color="#d80d23"/><stop offset=".802" stop-color="#c9141e"/><stop offset="1" stop-color="#b71918"/></linearGradient><path fill="url(#b)" d="M127.899 68.72l-.049.031a26.945 26.945 0 0 0-1.209-.031c-12.211 0-22.627 7.661-26.718 18.438l-17.589 42.22h177.218l25.361-60.657H127.899z"/><g><linearGradient id="c" gradientUnits="userSpaceOnUse" x1="-3543.115" y1="2839.111" x2="-3738.738" y2="2891.894" gradientTransform="rotate(180 -1745.276 1520.168)"><stop offset="0" stop-color="#004884"/><stop offset=".077" stop-color="#004c89"/><stop offset=".422" stop-color="#005b9b"/><stop offset=".739" stop-color="#0065a6"/><stop offset="1" stop-color="#0068aa"/></linearGradient><path fill="url(#c)" d="M207.118 206.938l.049-.029c.402.016.804.029 1.209.029 12.214 0 22.632-7.664 26.725-18.444l17.591-42.227H75.438l-25.367 60.671h157.047z"/></g><g><linearGradient id="d" gradientUnits="userSpaceOnUse" x1="282.196" y1="74.451" x2="86.572" y2="127.234"><stop offset="0" stop-color="#e40428"/><stop offset=".319" stop-color="#e10627"/><stop offset=".572" stop-color="#d80d23"/><stop offset=".802" stop-color="#c9141e"/><stop offset="1" stop-color="#b71918"/></linearGradient><path fill="url(#d)" d="M127.64 68.736l-.05.031a26.983 26.983 0 0 0-1.209-.031c-12.213 0-22.632 7.663-26.723 18.442l-17.594 42.229H259.32l25.367-60.67H127.64z"/></g></svg>